<?xml version="1.0" encoding="UTF-8" standalone="no"?>
<!-- Created with Inkscape (http://www.inkscape.org/) -->

<svg
   width="50.662907mm"
   height="50.54847mm"
   viewBox="0 0 50.662907 50.54847"
   version="1.1"
   id="svg1171"
   inkscape:version="1.2 (dc2aedaf03, 2022-05-15)"
   sodipodi:docname="TestGlorbling.svg"
   xmlns:inkscape="http://www.inkscape.org/namespaces/inkscape"
   xmlns:sodipodi="http://sodipodi.sourceforge.net/DTD/sodipodi-0.dtd"
   xmlns="http://www.w3.org/2000/svg"
   xmlns:svg="http://www.w3.org/2000/svg">
  <sodipodi:namedview
     id="namedview1173"
     pagecolor="#505050"
     bordercolor="#eeeeee"
     borderopacity="1"
     inkscape:showpageshadow="0"
     inkscape:pageopacity="0"
     inkscape:pagecheckerboard="0"
     inkscape:deskcolor="#505050"
     inkscape:document-units="mm"
     showgrid="false"
     inkscape:zoom="0.55244701"
     inkscape:cx="325.8231"
     inkscape:cy="258.84836"
     inkscape:window-width="1920"
     inkscape:window-height="1057"
     inkscape:window-x="-8"
     inkscape:window-y="-8"
     inkscape:window-maximized="1"
     inkscape:current-layer="layer14" />
  <defs
     id="defs1168" />
  <g
     inkscape:groupmode="layer"
     id="layer14"
     inkscape:label="Layer 6"
     transform="translate(-69.170386,-87.096956)" />
  <g
     inkscape:groupmode="layer"
     id="layer11"
     inkscape:label="Layer 4"
     transform="translate(-69.170386,-87.096956)">
    <path
       style="fill:#ffff00;fill-opacity:1;stroke-width:0.252737"
       d="m 102.98165,133.45542 c 2.04835,-0.6276 1.4761,0.25815 3.075,1.03466 2.1345,0.56785 2.30103,-0.17363 2.65531,-2.96364 0.47998,-2.73238 0.7631,-8.59351 3.61692,-8.68656 0.86761,-0.19976 1.79503,0.10588 2.79195,-0.0222 0.9969,-0.12812 2.39944,0.4582 3.16307,-0.37259 0.76362,-0.83077 1.33278,-2.13883 1.47185,-3.5195 0.13906,-1.38068 0.12465,-2.7897 -0.32537,-4.57783 -0.45007,-1.78813 -2.12996,-5.80979 -3.1028,-8.11841 -3.00105,-6.688217 -4.78657,-9.893288 -9.95129,-14.442944 -1.47234,-1.111892 -4.60883,-3.571299 -6.606898,-4.112794 -5.085787,-1.220009 -8.074027,-0.505519 -12.288563,2.156272 -2.015499,1.301105 -3.796846,3.147741 -5.836042,5.097464 -2.039196,1.949723 -4.162638,5.038483 -5.509904,7.428122 -1.347266,2.38964 -2.500578,3.96811 -3.751202,6.26139 -1.250624,2.29327 -1.912789,3.82573 -2.431696,5.857 -0.657512,2.57384 -1.37991,4.86545 0.02627,6.66271 0.849795,1.20058 1.709559,1.3271 3.236808,2.00044 1.52725,0.67333 2.520131,0.25148 3.754557,0.77738 1.234426,0.52589 2.406701,1.2703 3.213165,2.43927 0.806465,1.16896 0.887864,3.64319 1.242733,5.54656 0.422421,2.42103 0.566683,3.66879 2.474788,3.76964 1.102848,0.0598 2.191105,-1.54139 3.260829,-1.62861 1.069722,-0.0873 2.480802,2.15376 3.436496,2.59536 0.955692,0.44158 2.144883,0.95795 3.509923,0.99661 1.365041,0.0387 1.522663,-0.006 2.653766,-0.2598 1.131104,-0.25354 0.743181,-0.28938 2.541557,-1.02602 2.338443,-1.1195 2.207813,-2.08771 3.678773,-2.89196 z"
       id="path2402"
       sodipodi:nodetypes="cccczzzzcccczzzsczzzcczzzzccc" />
  </g>
  <g
     inkscape:groupmode="layer"
     id="layer9"
     inkscape:label="Layer 2"
     transform="translate(-69.170386,-87.096956)">
    <path
       style="fill:#000000;fill-opacity:1;stroke-width:0.264583"
       d="m 95.172362,88.266086 c -13.350649,0.225617 -26.67231,28.225954 -24.485892,31.566674 2.186418,3.34072 6.511606,1.31655 9.627535,4.62028 3.11593,3.30373 0.932225,13.71932 4.977397,9.22494 3.408057,-3.78652 3.134056,2.882 9.778313,2.84204 6.644255,-0.04 7.261315,-7.13311 10.334435,-3.89242 3.7824,3.98863 1.06451,-3.97341 4.52365,-9.47152 3.05456,-4.85505 7.51893,2.38474 8.40931,-3.58768 1.1162,-7.4871 -9.8141,-31.527931 -23.164748,-31.302314 z"
       id="path2265"
       sodipodi:nodetypes="zzzszsssz" />
  </g>
  <g
     inkscape:label="Layer 1"
     inkscape:groupmode="layer"
     id="layer1"
     style="fill:#ffffff"
     transform="translate(-69.170386,-87.096956)" />
  <ellipse
     style="fill:#ffffff;fill-opacity:1;stroke-width:0.235633"
     id="path2126"
     cx="92.923866"
     cy="113.59453"
     rx="11.628839"
     ry="18.815859"
     transform="rotate(-1.0790129,-4659.3126,3629.3029)" />
  <ellipse
     style="fill:#000000;fill-opacity:1;stroke-width:0.189813"
     id="path2184-3-7"
     cx="-48.482174"
     cy="149.43065"
     rx="3.7051289"
     ry="2.7238851"
     transform="rotate(-57.02658,-114.74716,20.114305)" />
  <g
     inkscape:groupmode="layer"
     id="layer10"
     inkscape:label="Layer 3"
     transform="translate(-69.170386,-87.096956)">
    <ellipse
       style="fill:#000000;fill-opacity:1;stroke-width:0.224277"
       id="path2184"
       cx="57.380943"
       cy="132.6232"
       rx="3.391737"
       ry="4.4669223"
       transform="rotate(-14.599219)" />
    <ellipse
       style="fill:#000000;fill-opacity:1;stroke-width:0.154837"
       id="path2184-3"
       cx="-136.133"
       cy="39.965122"
       rx="3.0223978"
       ry="2.2219644"
       transform="rotate(-118.30966)" />
  </g>
  <ellipse
     style="fill:#ffff00;fill-opacity:1;stroke-width:0.203428"
     id="path2341"
     cx="-104.93299"
     cy="88.748917"
     rx="0.96946883"
     ry="0.79657078"
     transform="matrix(-0.10247424,-0.99473566,0.99928631,-0.03777386,-69.170386,-87.096956)" />
  <ellipse
     style="fill:#ffff00;fill-opacity:1;stroke-width:0.4508"
     id="path2343"
     cx="115.84123"
     cy="-86.562157"
     rx="3.7321832"
     ry="1.6909707"
     transform="rotate(88.799424,9.8854955,-78.866069)" />
  <ellipse
     style="fill:#ffff00;fill-opacity:1;stroke-width:0.179362"
     id="path2345"
     cx="99.079758"
     cy="121.72889"
     rx="1.6764044"
     ry="0.93358529"
     transform="translate(-69.170386,-87.096956)" />
  <g
     inkscape:groupmode="layer"
     id="layer12"
     inkscape:label="Layer 5"
     style="fill:#ffffff"
     transform="translate(-69.170386,-87.096956)" />
  <path
     style="fill:#ffffff;fill-opacity:1;stroke-width:0.264583"
     id="path3715"
     d="m 110.31056,114.49363 c 1.65467,0.99231 3.5065,1.63933 5.09456,2.7482 0.26587,0.18564 0.5034,0.4089 0.7551,0.61335 0.2162,0.27093 0.54653,0.55806 0.56507,0.94731 0.005,0.0988 -0.069,0.18548 -0.10351,0.27822 -0.005,0.0162 0.22357,0.092 0.22893,0.0758 v 0 c 0.0914,-0.14662 0.23518,-0.27154 0.27431,-0.43985 0.13997,-0.60212 -0.14733,-0.89128 -0.41386,-1.40666 -0.25269,-0.26152 -0.4794,-0.55092 -0.75807,-0.78458 -0.68025,-0.57037 -1.53659,-1.03681 -2.33272,-1.41113 -0.97892,-0.46027 -2.0052,-0.81769 -3.06012,-1.05572 -0.0308,-0.0176 -0.28045,0.41741 -0.24969,0.43507 z"
     transform="translate(-69.170386,-87.096956)" />
  <path
     style="fill:#ffffff;fill-opacity:1;stroke-width:0.264583"
     id="path3717"
     d="m 109.95303,110.66467 c 0.88489,0.048 1.75439,0.23731 2.56918,0.58993 0.19216,0.0832 0.37626,0.18386 0.56439,0.27578 0.36536,0.23938 0.59952,0.36055 0.89934,0.68134 0.11603,0.12414 0.20418,0.27168 0.30627,0.40752 0.007,0.0121 0.17856,-0.088 0.17148,-0.10008 v 0 c -0.27377,-0.60575 -0.48869,-1.07644 -1.09379,-1.42922 -0.19772,-0.10934 -0.38858,-0.23214 -0.59318,-0.328 -0.74465,-0.34889 -1.60508,-0.55484 -2.43082,-0.49548 -0.12647,0.009 -0.24989,0.0432 -0.37483,0.0647 -0.0236,-10e-4 -0.0416,0.3322 -0.0181,0.33348 z"
     transform="translate(-69.170386,-87.096956)" />
  <path
     style="fill:#ffffff;fill-opacity:1;stroke-width:0.264583"
     id="path3719"
     d="m 109.52643,104.98415 c 0.8284,0.39275 1.70469,0.675 2.56398,0.99123 0.0285,0.0159 0.25347,-0.38689 0.22499,-0.40279 v 0 c -0.83306,-0.33695 -1.66324,-0.68976 -2.52837,-0.93873 -0.0248,-0.0184 -0.28537,0.33187 -0.2606,0.35029 z"
     transform="translate(-69.170386,-87.096956)" />
  <path
     style="fill:#ffffff;fill-opacity:1;stroke-width:0.264583"
     id="path3721"
     d="m 108.80915,102.03491 c 0.13419,0.004 0.26837,0.008 0.40256,0.0123 0.0227,0.005 0.0893,-0.31641 0.0666,-0.32112 v 0 c -0.13606,0.003 -0.27211,0.005 -0.40817,0.008 -0.0213,-0.004 -0.0823,0.2967 -0.061,0.30101 z"
     transform="translate(-69.170386,-87.096956)" />
  <path
     style="fill:#ffffff;fill-opacity:1;stroke-width:0.264583"
     id="path3727"
     d="m 78.505364,116.03716 c -1.005364,-0.76013 -2.357938,-0.84448 -3.499943,-0.31345 -0.413253,0.19216 -0.776785,0.47689 -1.165177,0.71533 -1.134081,1.07469 -0.641612,0.50955 -1.500238,1.67526 -0.01572,0.0288 0.391319,0.25116 0.407043,0.22238 v 0 c 0.954476,-0.99589 0.44065,-0.50425 1.54995,-1.46602 0.672817,-0.45032 0.868297,-0.6627 1.673712,-0.86893 0.80631,-0.20646 1.615766,-0.0355 2.373508,0.25021 0.01519,0.0114 0.176332,-0.20339 0.161145,-0.21478 z"
     transform="translate(-69.170386,-87.096956)" />
  <path
     style="fill:#ffffff;fill-opacity:1;stroke-width:0.264583"
     id="path3729"
     d="m 76.341228,110.38461 c -0.99641,0.44783 -1.790499,1.21563 -2.606971,1.92066 -0.01947,0.0245 0.327395,0.29982 0.346863,0.2753 v 0 c 0.838111,-0.63787 1.717945,-1.22355 2.506832,-1.92356 0.01926,-0.0174 -0.227462,-0.28985 -0.246724,-0.2724 z"
     transform="translate(-69.170386,-87.096956)" />
  <path
     style="fill:#ffffff;fill-opacity:1;stroke-width:0.264583"
     id="path3731"
     d="m 78.208358,105.94124 c -1.053996,0.18579 -0.508394,0.0535 -1.631137,0.41967 -0.03428,0.002 -0.01101,0.48644 0.02328,0.48479 v 0 c 1.116888,-0.26538 0.584475,-0.11738 1.599599,-0.43543 0.03317,5.3e-4 0.04142,-0.46845 0.0083,-0.46903 z"
     transform="translate(-69.170386,-87.096956)" />
  <path
     style="fill:#800080;fill-opacity:1;stroke-width:0.264583"
     id="path3733"
     d="m 80.509408,101.57269 c -0.09209,-0.009 -0.184174,-0.0179 -0.276259,-0.0269 -0.01463,-0.005 -0.09172,0.20125 -0.07711,0.2067 v 0 c 0.08095,0.0264 0.161901,0.0527 0.242853,0.0791 0.01831,0.008 0.128817,-0.25109 0.110511,-0.25891 z"
     transform="translate(-69.170386,-87.096956)" />
</svg>
